<?xml version="1.0" encoding="UTF-8" standalone="no"?>
<svg
   xmlns:dc="http://purl.org/dc/elements/1.1/"
   xmlns:cc="http://creativecommons.org/ns#"
   xmlns:rdf="http://www.w3.org/1999/02/22-rdf-syntax-ns#"
   xmlns:svg="http://www.w3.org/2000/svg"
   xmlns="http://www.w3.org/2000/svg"
   xmlns:sodipodi="http://sodipodi.sourceforge.net/DTD/sodipodi-0.dtd"
   xmlns:inkscape="http://www.inkscape.org/namespaces/inkscape"
   version="1.1"
   id="svg2"
   xml:space="preserve"
   width="969.9267"
   height="389.57867"
   viewBox="0 0 969.9267 389.57867"
   sodipodi:docname="my-hero-academia-seeklogo.com.ai"><metadata
     id="metadata8"><rdf:RDF><cc:Work
         rdf:about=""><dc:format>image/svg+xml</dc:format><dc:type
           rdf:resource="http://purl.org/dc/dcmitype/StillImage" /></cc:Work></rdf:RDF></metadata><defs
     id="defs6"><clipPath
       clipPathUnits="userSpaceOnUse"
       id="clipPath46"><path
         d="M 0,292.184 H 727.445 V 0 H 0 Z"
         id="path44" /></clipPath></defs><sodipodi:namedview
     pagecolor="#ffffff"
     bordercolor="#666666"
     borderopacity="1"
     objecttolerance="10"
     gridtolerance="10"
     guidetolerance="10"
     inkscape:pageopacity="0"
     inkscape:pageshadow="2"
     inkscape:window-width="640"
     inkscape:window-height="480"
     id="namedview4" /><g
     id="g10"
     inkscape:groupmode="layer"
     inkscape:label="my-hero-academia-seeklogo.com"
     transform="matrix(1.3333333,0,0,-1.3333333,0,389.57867)"><g
       id="g12"
       transform="translate(95.8013,154.087)"><path
         d="M 0,0 8.422,-6.176 20.12,8.703 10.387,15.066 Z"
         style="fill:#eeee16;fill-opacity:1;fill-rule:nonzero;stroke:none"
         id="path14" /></g><g
       id="g16"
       transform="translate(28.3629,24.569)"><path
         d="m 0,0 4.46,11.47 2.071,88.884 7.149,26.301 -27.202,-8.216 -3.841,-46.997 V 39.505 L -11.628,53.442 -12.743,0 Z"
         style="fill:#eeee16;fill-opacity:1;fill-rule:nonzero;stroke:none"
         id="path18" /></g><g
       id="g20"
       transform="translate(195.9376,95.2155)"><path
         d="M 0,0 13.221,-12.106 29.549,-9.877 29.708,21.981 0.319,18.478 Z"
         style="fill:#eeee16;fill-opacity:1;fill-rule:nonzero;stroke:none"
         id="path22" /></g><g
       id="g24"
       transform="translate(75.4732,115.3658)"><path
         d="m 0,0 -6.013,-1.912 -3.664,4.46 11.867,2.31 z m 40.42,-85.222 -34.805,28.514 13.859,0.558 -0.956,18.159 -14.894,-1.832 0.796,4.699 8.443,0.558 2.071,15.928 -8.761,-0.796 0.318,4.062 12.744,1.353 3.265,18.797 -7.088,-1.115 0.079,4.381 22.54,5.177 V 33.69 L 18.677,27.717 19.235,49.778 0.677,44.601 V 27.955 L -2.19,21.981 -4.5,25.406 V 42.849 L -21.783,35.858 V 16.722 L -36.996,12.186 V -4.858 l 8.45,2.707 v -5.097 l -8.45,-1.991 v -14.177 l 21.107,3.345 v -3.983 l -18.644,-3.416 v -12.991 l 16.916,1.195 v -4.38 l -22.803,-1.912 v -16.566 l 25.566,1.991 -25.566,-29.23 h 21.504 l 12.744,16.327 16.805,-14.814 z"
         style="fill:#eeee16;fill-opacity:1;fill-rule:nonzero;stroke:none"
         id="path26" /></g><g
       id="g28"
       transform="translate(255.6719,145.3121)"><path
         d="m 0,0 7.089,8.602 21.504,4.062 8.522,-6.85 v -70.008 l -7.089,-9 -22.858,-0.16 -7.725,6.532 z m 64.274,-52.088 -15.929,14.097 v 28.753 l 21.664,4.937 V 17.92 L 48.026,30.106 -14.496,16.566 -25.646,-1.752 V -92.15 l 17.124,-17.044 61.328,2.947 17.362,22.937 -0.08,31.142 z"
         style="fill:#eeee16;fill-opacity:1;fill-rule:nonzero;stroke:none"
         id="path30" /></g><g
       id="g32"
       transform="translate(40.9405,137.4977)"><path
         d="M 0,0 6.212,-5.41 11.973,3.857 4.458,8.666 Z"
         style="fill:#eeee16;fill-opacity:1;fill-rule:nonzero;stroke:none"
         id="path34" /></g><g
       id="g36"
       transform="translate(156.6724,31.817)"><path
         d="M 0,0 63.398,4.062 58.301,33.292 8.283,29.31 8.204,81.478 46.991,88.805 58.858,122.256 35.283,115.964 28.752,102.504 7.088,98.362 v 21.186 l -22.699,-6.291 v -96.85 z"
         style="fill:#eeee16;fill-opacity:1;fill-rule:nonzero;stroke:none"
         id="path38" /></g><g
       id="g40"><g
         id="g42"
         clip-path="url(#clipPath46)"><g
           id="g48"
           transform="translate(118.2833,91.5514)"><path
             d="m 0,0 -5.655,7.407 -5.018,-21.664 c 0,0 -2.867,3.425 -2.867,13.779 0,10.354 6.77,18.08 12.425,18.08 5.655,0 10.991,-7.089 10.991,-17.602 0,-10.514 -0.478,-11.39 -0.478,-11.39 l -9.558,-5.973 -2.15,-13.619 h 15.531 c 0,0 5.496,13.619 5.496,28.513 0,14.894 -8.443,27.756 -8.443,27.756 l 7.328,8.084 -24.452,-2.867 c 0,0 -15.77,-9.318 -15.77,-31.698 0,-22.381 9.638,-28.514 17.284,-30.028 z"
             style="fill:#eeee16;fill-opacity:1;fill-rule:nonzero;stroke:none"
             id="path50" /></g><g
           id="g52"
           transform="translate(309.9107,132.0914)"><path
             d="m 0,0 v -20.947 l 13.142,-12.824 17.92,3.027 V 6.929 Z"
             style="fill:#eeee16;fill-opacity:1;fill-rule:nonzero;stroke:none"
             id="path54" /></g><g
           id="g56"
           transform="translate(600.2149,97.3121)"><path
             d="M 0,0 7.359,-1.168 V 21.728 L 0,24.181 Z"
             style="fill:#eeee16;fill-opacity:1;fill-rule:nonzero;stroke:none"
             id="path58" /></g><g
           id="g60"
           transform="translate(662.2432,104.5553)"><path
             d="m 0,0 v -8.061 l 32.474,-7.592 6.424,-6.309 V -55.02 l 15.303,-2.336 v 36.095 l -9.695,9.93 z"
             style="fill:#eeee16;fill-opacity:1;fill-rule:nonzero;stroke:none"
             id="path62" /></g><g
           id="g64"
           transform="translate(656.6358,105.4889)"><path
             d="M 0,0 -29.904,9.462 -44.39,3.505 v -7.242 l 13.902,-5.725 10.163,7.477 L 0,-7.009 Z"
             style="fill:#eeee16;fill-opacity:1;fill-rule:nonzero;stroke:none"
             id="path66" /></g><g
           id="g68"
           transform="translate(588.8839,99.9996)"><path
             d="M 0,0 7.71,-1.753 V 21.493 L 0,24.998 Z"
             style="fill:#eeee16;fill-opacity:1;fill-rule:nonzero;stroke:none"
             id="path70" /></g><g
           id="g72"
           transform="translate(395.6739,37.9713)"><path
             d="m 0,0 11.331,18.34 v 88.778 l -27.335,6.308 -0.233,-72.892 -4.089,-6.191 -31.89,2.336 V 2.92 Z"
             style="fill:#eeee16;fill-opacity:1;fill-rule:nonzero;stroke:none"
             id="path74" /></g><g
           id="g76"
           transform="translate(588.8839,41.5924)"><path
             d="m 0,0 -0.584,27.334 11.331,-2.453 9.929,24.181 -21.027,4.322 -5.957,-9.462 -51.749,9.345 V 35.161 l 34.811,-4.79 V 17.288 l -5.373,-4.673 H -44.74 l -6.658,-22.778 36.095,-2.57 z"
             style="fill:#eeee16;fill-opacity:1;fill-rule:nonzero;stroke:none"
             id="path78" /></g><g
           id="g80"
           transform="translate(614.3497,72.1969)"><path
             d="M 0,0 37.029,-6.074 44.389,6.659 26.867,10.981 22.778,7.943 0,13.434 Z"
             style="fill:#eeee16;fill-opacity:1;fill-rule:nonzero;stroke:none"
             id="path82" /></g><g
           id="g84"
           transform="translate(411.3262,160.275)"><path
             d="m 0,0 9.462,-9.345 -1.868,-60.86 28.151,-4.673 V -9.229 L 19.858,6.308 -67.752,29.204 V 16.938 Z"
             style="fill:#eeee16;fill-opacity:1;fill-rule:nonzero;stroke:none"
             id="path86" /></g><g
           id="g88"
           transform="translate(539.9385,139.2487)"><path
             d="m 0,0 v -21.026 l 7.359,-12.383 31.423,-5.957 v 28.619 z"
             style="fill:#eeee16;fill-opacity:1;fill-rule:nonzero;stroke:none"
             id="path90" /></g><g
           id="g92"
           transform="translate(697.5206,31.8961)"><path
             d="m 0,0 v 48.244 l -14.368,5.725 V 12.85 l -3.855,-2.687 -15.185,0.233 V -8.527 l 26.867,-1.752 z"
             style="fill:#eeee16;fill-opacity:1;fill-rule:nonzero;stroke:none"
             id="path94" /></g><g
           id="g96"
           transform="translate(660.4903,35.8688)"><path
             d="m 0,0 v 12.148 l -17.755,1.87 -3.972,-4.79 -29.437,3.037 V -9.696 L -10.98,-12.5 Z"
             style="fill:#eeee16;fill-opacity:1;fill-rule:nonzero;stroke:none"
             id="path98" /></g><g
           id="g100"
           transform="translate(528.2569,121.026)"><path
             d="m 0,0 -10.513,13.199 -24.882,6.075 v 10.98 l -23.946,6.542 V 24.297 l -18.69,4.322 V 16.471 l 18.806,-4.089 v -59.108 l -8.41,-10.864 -33.876,2.337 -5.607,-27.452 49.997,-4.088 21.961,26.517 v 67.05 c 0,0 9.111,-2.453 9.695,-6.19 L -27.451,-89.479 0,-89.597 Z"
             style="fill:#eeee16;fill-opacity:1;fill-rule:nonzero;stroke:none"
             id="path102" /></g><g
           id="g104"
           transform="translate(69.46,113.4537)"><path
             d="M 0,0 6.013,1.912 8.204,6.771 -3.664,4.46 Z"
             style="fill:#231f20;fill-opacity:1;fill-rule:nonzero;stroke:none"
             id="path106" /></g><g
           id="g108"
           transform="translate(281.7872,84.9293)"><path
             d="m 0,0 -1.456,-1.849 -8.834,-0.061 0.397,50.305 1.967,2.52 L 0,52.496 Z m 3.911,-12.812 7.089,9 v 70.009 l -8.522,6.85 -21.504,-4.062 -7.089,-8.602 -0.557,-66.822 7.725,-6.532 z"
             style="fill:#231f20;fill-opacity:1;fill-rule:nonzero;stroke:none"
             id="path110" /></g><g
           id="g112"
           transform="translate(694.7169,88.902)"><path
             d="m 0,0 -32.474,7.593 v 8.06 L 12.032,4.322 21.728,-5.607 v -36.096 l -15.303,2.337 v 33.057 z m -553.655,-40.678 v 96.85 l 22.699,6.291 V 41.277 l 21.664,4.142 6.53,13.46 23.575,6.292 -11.867,-33.451 -38.787,-7.327 0.08,-52.168 50.017,3.982 5.098,-29.23 -63.398,-4.062 z m 44.911,42.362 c 0.604,-1.302 1.454,-2.493 2.536,-3.484 l 13.128,-12.02 -15.64,-1.245 z m 39.673,26.611 -0.159,-31.858 -16.328,-2.23 -13.221,12.106 0.319,18.478 z m 4.38,26.363 11.15,18.319 62.522,13.54 21.983,-12.186 V 52.109 L -390.7,47.172 V 18.419 l 15.929,-14.097 5.814,-0.08 0.08,-31.141 -17.362,-22.938 -61.328,-2.947 -17.124,17.044 z m 110.947,-4.54 V 12.445 l -17.92,-3.026 -13.142,12.823 v 20.947 z m 34.375,-66.706 4.089,6.192 0.233,72.891 27.335,-6.307 v -88.779 l -11.331,-18.34 -52.216,2.92 v 33.759 z m -31.774,117.165 87.611,-22.896 15.886,-15.536 v -65.65 l -28.151,4.673 1.868,60.86 -9.462,9.345 -67.752,16.938 z m 106.652,-39.834 18.69,-4.322 V 68.92 l 23.947,-6.542 v -10.98 l 24.881,-6.075 10.513,-13.199 v -89.597 l -27.451,0.118 1.986,90.063 c -0.584,3.737 -9.695,6.19 -9.695,6.19 v -67.05 l -21.961,-26.517 -49.997,4.088 5.607,27.452 33.876,-2.337 8.41,10.864 v 59.108 l -18.806,4.089 z m 80.601,-54.786 51.749,-9.345 5.957,9.462 21.027,-4.322 -9.929,-24.181 -11.331,2.453 0.584,-27.334 -15.303,-12.733 -36.095,2.57 6.658,22.779 h 16.121 l 5.373,4.673 v 13.083 l -34.811,4.79 z m 9.112,44.39 38.782,-10.747 V 10.98 l -31.423,5.957 -7.359,12.383 z m 48.945,-14.251 7.71,-3.505 V 9.345 l -7.71,1.753 z m 11.331,-3.505 7.359,-2.453 V 7.242 l -7.359,1.168 z m 12.031,-12.499 14.486,5.957 29.904,-9.462 V 9.578 l -20.325,5.024 -10.163,-7.477 -13.902,5.725 z m 39.133,-42.871 -37.029,6.074 v 13.434 l 22.778,-5.491 4.089,3.038 17.521,-4.322 z m 12.734,-23.83 15.185,-0.234 3.855,2.687 V -3.037 L 2.804,-8.762 v -48.244 l -6.541,-10.279 -26.867,1.752 z m -54.787,5.84 29.438,-3.037 3.972,4.79 17.754,-1.869 v -12.148 l -10.98,-12.5 -40.184,2.804 z m -477.822,12.436 h -15.531 l 2.151,13.619 9.557,5.974 c 0,0 0.478,0.876 0.478,11.389 0,10.513 -5.336,17.602 -10.991,17.602 -5.655,0 -12.425,-7.726 -12.425,-18.079 0,-10.355 2.868,-13.779 2.868,-13.779 l 5.017,21.664 5.655,-7.408 -5.336,-31.221 c -7.646,1.513 -17.283,7.646 -17.283,30.027 0,22.38 15.77,31.698 15.77,31.698 l 24.451,2.868 -7.328,-8.084 c 0,0 8.443,-12.863 8.443,-27.756 0,-14.895 -5.496,-28.514 -5.496,-28.514 m -45.398,-33.053 -16.805,14.814 -12.743,-16.327 h -21.505 l 25.566,29.23 -25.566,-1.991 v 16.566 l 22.804,1.911 v 4.381 l -16.916,-1.195 v 12.991 l 18.643,3.416 v 3.983 l -21.106,-3.345 v 14.177 l 8.449,1.991 v 5.096 l -8.449,-2.707 v 17.044 l 15.212,4.537 v 19.136 l 17.283,6.991 V 51.87 l 2.31,-3.425 2.868,5.974 v 16.646 l 18.557,5.177 -0.557,-22.061 19.353,5.973 V 39.685 l -22.539,-5.177 -0.08,-4.381 7.088,1.115 -3.265,-18.797 -12.743,-1.353 -0.319,-4.062 8.761,0.796 -2.071,-15.929 -8.442,-0.557 -0.797,-4.699 14.894,1.832 0.956,-18.16 -13.858,-0.557 34.805,-28.514 z m -75.106,68.495 3.841,46.997 27.202,8.216 -7.149,-26.301 -2.071,-88.884 -4.46,-11.47 h -12.743 l 1.115,53.442 -5.735,-13.937 z m 34.399,50.153 7.514,-4.809 -5.76,-9.267 -6.212,5.41 z m 60.79,22.989 9.732,-6.363 -11.698,-14.879 -8.422,6.176 z M 29.598,2.078 19.902,12.007 c -1.413,1.447 -3.196,2.476 -5.156,2.974 L -29.76,26.312 c -0.896,0.229 -1.807,0.341 -2.714,0.341 -0.353,0 -0.705,-0.017 -1.055,-0.05 -0.398,0.179 -0.81,0.337 -1.234,0.472 l -29.904,9.462 c -1.081,0.342 -2.201,0.512 -3.318,0.512 -1.425,0 -2.847,-0.277 -4.185,-0.826 l -4.773,-1.964 c -1.183,2.926 -3.599,5.273 -6.721,6.314 l -7.359,2.453 c -1.136,0.379 -2.311,0.565 -3.478,0.565 -0.373,0 -0.745,-0.019 -1.115,-0.057 l -5.665,2.575 c -1.452,0.661 -3.004,0.987 -4.551,0.987 -0.655,0 -1.309,-0.059 -1.954,-0.175 -1.371,1.538 -3.181,2.699 -5.273,3.279 l -38.782,10.747 c -0.967,0.268 -1.955,0.4 -2.936,0.4 -2.379,0 -4.724,-0.772 -6.66,-2.245 -2.44,-1.856 -3.972,-4.634 -4.277,-7.652 -0.517,-0.198 -1.02,-0.436 -1.506,-0.715 l -1.148,1.442 c -1.519,1.906 -3.628,3.255 -5.996,3.833 l -16.49,4.026 v 2.342 c 0,4.959 -3.318,9.305 -8.101,10.612 l -23.947,6.541 c -0.955,0.261 -1.93,0.389 -2.899,0.389 -2.386,0 -4.736,-0.776 -6.675,-2.257 -2.374,-1.812 -3.893,-4.498 -4.246,-7.426 l -4.538,1.049 -14.581,14.259 c -1.367,1.337 -3.059,2.295 -4.91,2.779 l -87.61,22.895 c -0.918,0.24 -1.852,0.358 -2.781,0.358 -2.408,0 -4.777,-0.791 -6.724,-2.294 -2.697,-2.083 -4.277,-5.299 -4.277,-8.706 V 88.311 c 0,-3.14 1.331,-6.029 3.516,-8.059 v -0.305 c 0,-4.883 3.278,-9.156 7.995,-10.421 l 24.606,-6.598 c -0.006,-0.133 -0.02,-0.264 -0.021,-0.398 l -0.217,-67.583 -19.135,1.402 c 2.087,2.025 3.379,4.92 3.379,8.096 v 37.673 c 0,1.384 -0.26,2.731 -0.724,3.989 v 4.011 c 0,3.338 -1.516,6.496 -4.12,8.584 -1.97,1.578 -4.403,2.416 -6.88,2.416 -0.798,0 -1.601,-0.087 -2.395,-0.264 l -0.361,-0.08 v 5.557 c 0,2.06 -0.554,4.032 -1.536,5.73 v 2.27 c 0,3.998 -2.17,7.682 -5.667,9.62 l -21.982,12.186 c -1.643,0.911 -3.48,1.38 -5.334,1.38 -0.777,0 -1.557,-0.083 -2.328,-0.25 l -62.522,-13.539 c -2.945,-0.639 -5.5,-2.457 -7.068,-5.032 l -5.923,-9.732 c -0.491,1.336 -1.244,2.585 -2.243,3.668 -2.111,2.287 -5.056,3.54 -8.084,3.54 -0.945,0 -1.897,-0.122 -2.836,-0.373 l -23.575,-6.292 c -3.088,-0.824 -5.665,-2.95 -7.06,-5.826 l -0.545,-1.122 c -0.235,0.228 -0.472,0.454 -0.729,0.66 -1.833,1.472 -4.053,2.244 -6.306,2.244 -0.05,0 -0.1,-0.009 -0.15,-0.01 -0.642,2.269 -1.989,4.306 -3.909,5.766 -1.936,1.472 -4.281,2.244 -6.66,2.244 -0.982,0 -1.97,-0.131 -2.938,-0.4 l -21.31,-5.906 c -0.018,0.171 -0.027,0.343 -0.053,0.513 -0.473,3.043 -2.135,5.737 -4.578,7.425 l -9.216,6.363 c -1.141,0.788 -2.377,1.305 -3.638,1.574 -0.03,0.02 -0.057,0.043 -0.086,0.063 l -9.733,6.363 c -1.855,1.213 -3.944,1.794 -6.01,1.794 -3.342,0 -6.625,-1.52 -8.77,-4.348 -0.819,0.208 -1.677,0.325 -2.559,0.337 -0.053,0.001 -0.108,0.001 -0.162,0.001 -0.125,0 -0.25,-0.002 -0.376,-0.006 -0.979,-0.033 -1.926,-0.194 -2.824,-0.467 l -18.312,-5.108 c -1.103,-0.308 -2.128,-0.778 -3.051,-1.379 -1.117,-0.085 -2.229,-0.341 -3.295,-0.772 l -17.283,-6.991 c -0.597,-0.241 -1.163,-0.531 -1.697,-0.863 -1.608,1.006 -3.496,1.607 -5.52,1.662 -0.102,0.003 -0.205,0.004 -0.307,0.004 -0.2,0 -0.4,-0.006 -0.6,-0.016 -0.981,-0.053 -1.928,-0.235 -2.825,-0.528 l -26.957,-8.142 c -4.328,-1.307 -7.415,-5.128 -7.783,-9.634 l -3.84,-46.996 c -0.025,-0.299 -0.037,-0.598 -0.037,-0.897 v -31.937 c 0,-3.914 2.063,-7.422 5.246,-9.377 l -0.624,-29.899 c -0.062,-2.956 1.07,-5.813 3.139,-7.925 0.394,-0.404 0.824,-0.761 1.269,-1.095 l -0.006,-0.01 0.076,-0.042 c 0.77,-0.568 1.606,-1.034 2.491,-1.383 l 0.055,-0.03 18.013,-7.626 c 0.487,-0.25 0.987,-0.47 1.504,-0.637 l 10e-4,-10e-4 10e-4,10e-4 c 0.976,-0.315 2,-0.481 3.041,-0.481 h 12.066 c 1.884,0 3.684,0.536 5.242,1.494 0.36,-0.04 0.725,-0.06 1.093,-0.06 h 20.362 c 3.208,0 6.238,1.561 8.211,4.232 l 3.937,5.326 c 0.328,-0.03 0.658,-0.045 0.989,-0.045 0.321,0 0.644,0.014 0.967,0.042 l 1.189,0.106 5.799,-5.4 c 1.91,-1.778 4.362,-2.748 6.887,-2.748 0.305,0 0.61,0.014 0.916,0.042 l 28.206,2.629 c 4.217,0.393 7.79,3.443 9.038,7.715 1.248,4.273 -0.078,8.918 -3.352,11.752 l -13.029,11.271 c 0.532,-0.143 1.07,-0.272 1.615,-0.385 0.671,-0.141 1.348,-0.21 2.022,-0.21 0.757,0 1.51,0.088 2.245,0.259 0.206,-0.013 0.413,-0.02 0.621,-0.02 h 3.081 c 0.244,-0.32 0.501,-0.633 0.781,-0.928 l 15.611,-16.406 c 0.56,-0.589 1.182,-1.102 1.845,-1.546 -10e-4,-0.001 -0.007,-0.004 -0.007,-0.004 l 11.246,-7.871 0.165,-0.115 0.359,-0.251 v 0.016 c 1.631,-1.062 3.514,-1.647 5.456,-1.647 0.222,0 0.444,0.008 0.667,0.022 l 60.031,4.062 c 2.953,0.2 5.687,1.717 7.517,4.172 1.605,2.153 2.384,4.849 2.209,7.555 l 7.902,-8.306 c 1.956,-2.057 4.601,-3.204 7.347,-3.204 0.167,0 0.333,0.004 0.501,0.013 l 58.07,2.947 c 3.083,0.156 5.942,1.749 7.805,4.347 l 11.718,16.35 4.767,-12.979 c 0.198,-0.807 0.479,-1.582 0.847,-2.307 l 0.008,-0.022 h 0.002 c 1.687,-3.301 5.025,-5.631 8.964,-5.868 l 49.455,-2.967 c 0.216,-0.012 0.433,-0.019 0.648,-0.019 3.841,0 7.414,2.048 9.347,5.404 l 4.059,7.046 c -0.337,-2.769 0.411,-5.573 2.106,-7.813 1.839,-2.433 4.624,-3.973 7.662,-4.24 l 47.352,-4.153 c 0.316,-0.027 0.631,-0.041 0.945,-0.041 3.324,0 6.485,1.536 8.538,4.195 l 8.928,11.563 -0.154,-7.476 c -0.06,-2.891 1.044,-5.684 3.063,-7.755 2.019,-2.07 4.784,-3.244 7.675,-3.256 l 25.999,-0.119 c 0.017,-0.001 0.034,-0.001 0.05,-0.001 1.52,0 3.007,0.322 4.37,0.925 1.111,-0.492 2.309,-0.799 3.549,-0.893 l 34.187,-2.611 c 0.274,-0.02 0.548,-0.031 0.821,-0.031 2.641,0 5.2,0.969 7.183,2.739 l 14.495,12.935 c 0.512,0.458 0.976,0.96 1.387,1.497 v -9.11 c 0,-5.647 4.354,-10.338 9.985,-10.76 l 38.058,-2.848 c 0.27,-0.02 0.538,-0.03 0.807,-0.03 2.538,0 4.983,0.895 6.913,2.507 1.687,-1.41 3.814,-2.317 6.162,-2.481 l 25.446,-1.78 c 0.253,-0.018 0.505,-0.026 0.755,-0.026 2.033,0 3.982,0.589 5.663,1.629 l -0.007,-0.021 0.255,0.183 0.818,0.586 12.938,9.271 c 1.254,0.579 2.393,1.392 3.358,2.406 l 0.086,0.062 -0.026,0.003 c 0.46,0.491 0.893,1.012 1.262,1.593 l 6.541,10.279 c 0.759,1.192 1.255,2.518 1.511,3.895 0.005,0.005 0.009,0.01 0.013,0.016 l 0.006,-0.015 11.907,6.988 c 1.22,0.448 2.366,1.113 3.374,1.98 l 0.41,-0.078 -0.25,0.23 c 2.33,2.084 3.673,5.059 3.673,8.192 v 36.096 c 0,2.872 -1.124,5.629 -3.13,7.685"
             style="fill:#231f20;fill-opacity:1;fill-rule:nonzero;stroke:none"
             id="path114" /></g><g
           id="g116"
           transform="translate(569.9278,205.8961)"><path
             d="M 0,0 C -76.641,28.763 -153.282,57.525 -229.923,86.288 V -2.841 C -153.282,-22.071 -76.641,-41.301 0,-60.53 Z"
             style="fill:#e61d26;fill-opacity:1;fill-rule:nonzero;stroke:none"
             id="path118" /></g><g
           id="g120"
           transform="translate(132.4068,219.277)"><path
             d="M 0,0 C 69.199,24.302 138.398,48.605 207.598,72.907 V -16.222 C 138.398,-32.336 69.199,-48.452 0,-64.566 Z"
             style="fill:#e61d26;fill-opacity:1;fill-rule:nonzero;stroke:none"
             id="path122" /></g><g
           id="g124"
           transform="translate(154.8472,220.859)"><path
             d="m 0,0 5.757,-13.949 6.415,18.178 12.76,4.512 v -59.283 l -8.638,-2.074 0.157,23.516 c 0,2.09 -0.351,3.305 -0.951,3.366 l -1.33,-0.32 c -1.059,-0.254 -1.637,-1.184 -1.848,-3.273 V -30.168 -53.57 L 0.416,-56.43 v 23.097 c 0,2.649 -0.715,3.804 -2.144,3.461 -1.394,-0.335 -2.091,-1.802 -2.091,-4.402 v -23.173 l -10.35,-2.486 v 45.111 9.94 z"
             style="fill:#ffffff;fill-opacity:1;fill-rule:nonzero;stroke:none"
             id="path126" /></g><g
           id="g128"
           transform="translate(183.0577,206.5797)"><path
             d="m 0,0 v 24.044 l 10.971,3.788 V 1.766 c 0,-2.185 0.169,-3.942 0.507,-5.272 0.337,-1.33 2.962,-0.964 3.376,0.654 0.412,1.618 0.618,3.518 0.618,5.703 V 29.413 L 26.5,33.186 V 6.388 3.591 c -0.229,-3.145 -0.905,-6.185 -2.027,-9.118 -1.123,-2.935 -2.712,-5.848 -4.767,-8.741 l -0.971,-1.273 V -30.963 L 7.82,-33.594 v 15.422 l -1.028,0.791 c -2.055,1.902 -3.596,3.954 -4.624,6.158 C 1.141,-9.021 0.418,-6.211 0,-2.796 Z"
             style="fill:#ffffff;fill-opacity:1;fill-rule:nonzero;stroke:none"
             id="path130" /></g><g
           id="g132"
           transform="translate(219.7481,179.9391)"><path
             d="m 0,0 v 63.386 l 11.637,3.989 V 42.241 l 4.726,1.137 V 69.07 l 11.638,3.993 V 6.74 L 16.363,3.938 V 28.501 L 11.637,27.363 V 2.801 Z"
             style="fill:#ffffff;fill-opacity:1;fill-rule:nonzero;stroke:none"
             id="path134" /></g><g
           id="g136"
           transform="translate(250.8477,201.2863)"><path
             d="m 0,0 v 39.243 2.997 c 0.241,4.241 0.945,7.313 2.113,9.219 0.604,1.019 1.348,1.854 2.235,2.505 0.886,0.649 1.993,1.136 3.323,1.455 l 15.885,5.509 V 44.446 L 11.898,41.639 v -11.52 l 11.597,2.792 V 17.645 L 11.898,14.853 V 4.175 L 23.435,6.953 V -8.22 L 7.932,-11.952 C 2.644,-13.225 0,-9.242 0,0"
             style="fill:#ffffff;fill-opacity:1;fill-rule:nonzero;stroke:none"
             id="path138" /></g><g
           id="g140"
           transform="translate(290.2818,238.7242)"><path
             d="m 0,0 c 1.219,0.291 2.031,1.079 2.438,2.365 0.405,1.285 0.609,3.76 0.609,7.423 0,2.377 -1.077,3.309 -3.23,2.795 L -1.34,12.307 V -0.32 Z m -13.344,-45.019 v 69.4 l 20.23,6.904 c 5.727,1.367 8.591,-1.859 8.591,-9.678 V 9.646 L 15.355,7.193 C 15.151,4.042 14.625,1.654 13.771,0.029 12.918,-1.597 11.517,-3.031 9.567,-4.271 L 8.531,-4.518 9.567,-4.56 c 2.152,-0.129 3.706,-1.011 4.661,-2.646 0.954,-1.637 1.432,-4.221 1.432,-7.754 v -14.941 c 0,-1.672 0.061,-2.942 0.182,-3.811 0.122,-0.872 0.448,-1.951 0.975,-3.238 l 0.366,-0.78 -12.901,-3.081 c -0.494,0.975 -0.906,2.869 -1.235,5.682 v 1.349 14.362 1.061 c -0.238,2.127 -1.108,3.012 -2.609,2.654 l -1.778,-0.424 v -26.026 z"
             style="fill:#ffffff;fill-opacity:1;fill-rule:nonzero;stroke:none"
             id="path142" /></g><g
           id="g144"
           transform="translate(322.3487,220.5665)"><path
             d="M 0,0 C 0.735,0.149 1.308,0.738 1.716,1.771 2.125,2.802 2.33,4.469 2.33,6.773 v 31.501 c 0,2.845 -0.532,4.396 -1.595,4.655 L 0.245,42.83 -0.123,42.755 c -1.512,-0.307 -2.268,-2.15 -2.268,-5.529 V 5.8 c 0,-2.231 0.185,-3.799 0.553,-4.703 C -1.471,0.19 -0.858,-0.174 0,0 m -14.834,8.036 v 18.648 l 0.062,3.069 c 0,8.899 0.673,15.151 2.022,18.752 1.349,3.602 3.902,6.542 7.663,7.985 l 2.084,0.722 5.945,2.049 2.023,0.488 c 1.389,0.282 2.615,0.207 3.678,-0.222 1.063,-0.428 1.982,-1.074 2.759,-1.935 1.307,-1.571 2.288,-6.4 2.942,-11.226 l 0.306,-4.115 0.061,-9.566 V 14.037 10.879 c 0,-4.961 -0.255,-8.731 -0.766,-11.314 -0.511,-2.585 -1.461,-5.24 -2.85,-7.967 -1.186,-2.211 -2.554,-3.95 -4.107,-5.215 C 5.272,-14.645 2.942,-15.458 0,-16.055 l -3.126,-0.635 c -3.393,-0.689 -6.181,0.731 -8.367,4.26 -2.186,3.531 -3.279,9.168 -3.279,16.913 z"
             style="fill:#ffffff;fill-opacity:1;fill-rule:nonzero;stroke:none"
             id="path146" /></g><g
           id="g148"
           transform="translate(499.751,223.6862)"><path
             d="m 0,0 5.596,-18.955 6.865,14.273 12.385,-4.626 v -53.986 l -9.485,2.39 0.157,22.986 c 0,2.049 -0.35,3.411 -0.948,3.762 l -1.326,0.335 c -1.056,0.265 -1.631,-0.366 -1.842,-2.311 v -0.825 -22.949 l -10.988,2.768 v 22.65 c 0,2.599 -0.713,4.079 -2.136,4.438 -1.389,0.35 -2.084,-0.75 -2.084,-3.3 v -22.724 l -10.314,2.599 V -9.237 5.25 Z"
             style="fill:#ffffff;fill-opacity:1;fill-rule:nonzero;stroke:none"
             id="path150" /></g><g
           id="g152"
           transform="translate(361.8443,235.1427)"><path
             d="m 0,0 v 19.116 c 0,3.255 -0.781,5.08 -2.342,5.475 -1.644,0.416 -2.465,-1.004 -2.465,-4.258 V 1.216 Z m -16.886,-29.502 v 64.751 c 0,2.508 0.103,4.211 0.309,5.109 0.164,1.043 0.576,1.922 1.235,2.638 1.029,1.434 2.346,1.949 3.953,1.543 L 6.644,37.778 c 1.647,-0.417 3.005,-1.609 4.075,-3.574 0.495,-0.938 0.865,-2.049 1.112,-3.332 l 0.248,-1.894 V 25.723 -36.83 L 0,-33.774 v 16.07 l -4.807,1.217 v -16.071 z"
             style="fill:#ffffff;fill-opacity:1;fill-rule:nonzero;stroke:none"
             id="path154" /></g><g
           id="g156"
           transform="translate(376.9678,210.568)"><path
             d="m 0,0 v 45.209 l 0.197,3.054 c 0.395,3.454 1.226,5.782 2.497,6.981 1.271,1.198 3.111,1.495 5.521,0.888 L 19.223,51.971 V 32.499 l -3.649,0.919 c -1.095,0.276 -1.839,-0.312 -2.233,-1.764 L 13.209,30.523 V 3.75 l 0.065,-0.792 c 0.219,-1.8 0.964,-2.86 2.235,-3.181 l 3.648,-0.919 v -16.675 l -10.942,2.756 c -2.454,0.618 -4.272,1.818 -5.454,3.604 -1.184,1.784 -2.038,4.552 -2.564,8.305 z"
             style="fill:#ffffff;fill-opacity:1;fill-rule:nonzero;stroke:none"
             id="path158" /></g><g
           id="g160"
           transform="translate(417.1006,216.4581)"><path
             d="m 0,0 v 19.19 c 0,2.964 -0.78,4.645 -2.338,5.043 -1.641,0.419 -2.46,-0.853 -2.46,-3.817 V 1.226 Z m -16.854,-24.669 v 56.964 c 0,2.285 0.102,5.758 0.308,6.571 0.163,0.945 0.574,1.735 1.232,2.37 1.028,1.281 2.342,1.718 3.946,1.308 L 4.356,36.602 c 1.644,-0.42 3,-1.54 4.069,-3.356 0.493,-0.867 0.863,-1.887 1.109,-3.061 L 9.781,28.454 V 25.49 -31.475 L 0,-28.975 v 14.635 l -4.798,1.226 V -27.75 Z"
             style="fill:#ffffff;fill-opacity:1;fill-rule:nonzero;stroke:none"
             id="path162" /></g><g
           id="g164"
           transform="translate(444.3477,194.7911)"><path
             d="m 0,0 c 0.868,-0.218 1.456,-0.031 1.764,0.564 0.307,0.594 0.462,1.942 0.462,4.045 v 24.964 c 0,3.27 -0.761,5.097 -2.281,5.479 l -1.9,0.477 V 0.491 Z M -12.596,-11.027 V 54.424 L 6.948,47.132 c 1.882,-0.472 3.348,-1.863 4.399,-4.17 1.049,-2.309 1.573,-5.535 1.573,-9.681 V -5.173 c 0,-4.439 -0.344,-7.418 -1.031,-8.938 -0.832,-1.836 -2.461,-2.448 -4.886,-1.839 z"
             style="fill:#ffffff;fill-opacity:1;fill-rule:nonzero;stroke:none"
             id="path166" /></g><g
           id="g168"
           transform="translate(460.8331,188.5031)"><path
             d="m 0,0 v 36.222 2.63 c 0.218,3.617 0.852,6.009 1.902,7.176 0.543,0.633 1.213,1.044 2.011,1.232 0.797,0.187 1.793,0.135 2.989,-0.159 L 21.194,41.805 V 28.029 L 10.706,30.606 V 20.497 L 21.141,17.933 V 4.537 L 10.706,7.1 v -8.579 l 10.381,-2.55 v -13.315 l -13.95,3.427 C 2.38,-12.748 0,-8.11 0,0"
             style="fill:#ffffff;fill-opacity:1;fill-rule:nonzero;stroke:none"
             id="path170" /></g><g
           id="g172"
           transform="translate(526.9171,159.8116)"><path
             d="M 0,0 V 53.679 L 10.651,49.681 V -2.689 Z"
             style="fill:#ffffff;fill-opacity:1;fill-rule:nonzero;stroke:none"
             id="path174" /></g><g
           id="g176"
           transform="translate(554.0069,174.8121)"><path
             d="m 0,0 v 14.665 c 0,2.245 -0.572,3.512 -1.716,3.8 -1.205,0.304 -1.806,-0.668 -1.806,-2.913 V 0.887 Z m -12.375,-18.706 v 43.978 c 0,1.73 0.075,2.904 0.227,3.522 0.119,0.717 0.421,1.32 0.904,1.807 0.754,0.979 1.72,1.321 2.897,1.024 L 4.87,26.68 C 6.077,26.375 7.072,25.54 7.857,24.173 8.22,23.521 8.491,22.75 8.672,21.863 L 8.854,20.554 V 18.309 -24.052 L 0,-21.822 v 11.086 l -3.522,0.887 v -11.086 z"
             style="fill:#ffffff;fill-opacity:1;fill-rule:nonzero;stroke:none"
             id="path178" /></g></g></g></g></svg>
